<svg xmlns:xlink="http://www.w3.org/1999/xlink" xmlns="http://www.w3.org/2000/svg" width="340" height="13" viewBox="0 0 340 13" fill="none">
<path d="M320.912 8.14049C311.021 7.68336 302.097 7.75686 292.732 7.74671C274.457 7.724 256.187 5.95171 237.91 6.01321C196.983 6.17455 155.421 5.15452 114.349 6.83306C102.218 7.32066 90.1011 7.73476 78.0912 8.43622C76.9394 8.49956 75.7969 8.56469 74.6411 8.63819C63.3744 9.30745 48.6654 8.91545 37.4654 9.61697C27.6058 10.5492 19.9642 11.7179 10.5225 11.3994C8.01741 11.1789 5.35027 10.7816 3.84806 9.97546C0.569446 8.24548 -0.955093 6.66327 0.631385 5.34326C1.14928 4.90885 2.03876 4.46187 3.00203 4.06032C4.87852 3.31457 7.12779 2.72897 8.35067 2.67817C29.4548 1.65814 53.4001 1.46633 72.4703 1.28527C81.8843 1.19983 91.6043 1.0833 103.488 0.861012C130.943 0.543118 174.236 0.338751 201.72 0.0328042C225.735 -0.24267 249.812 1.27512 273.592 2.40267C282.633 2.82873 288.327 2.82873 296.433 2.94525C297.786 2.95361 299.316 2.97572 300.885 2.99604C308.896 3.11256 323.326 2.53891 327.985 3.6426C332.65 4.75824 335.906 4.87476 339.981 6.92434C340.197 8.94589 338.555 9.87979 336.473 10.2186C331.62 11.0265 327.171 11.9301 323.397 12.2073C318.976 12.5252 315.408 12.5377 314.684 11.7729C313.983 11.0062 314.378 10.5306 315.079 10.1798C316.298 9.60675 318.497 8.97871 320.468 8.55446L320.912 8.14049Z" fill="black" fill-opacity="0.11"/>
</svg>